<?xml version="1.0" encoding="UTF-8"?>
<svg id="Layer_1" xmlns="http://www.w3.org/2000/svg" version="1.1" xmlns:xlink="http://www.w3.org/1999/xlink" viewBox="0 0 802.6 300.6">
  <!-- Generator: Adobe Illustrator 29.2.1, SVG Export Plug-In . SVG Version: 2.1.0 Build 116)  -->
  <defs>
    <style>
      .st0 {
        fill: #252220;
      }

      .st1, .st2 {
        fill: #005b9b;
      }

      .st2, .st3 {
        fill-rule: evenodd;
      }

      .st3 {
        fill: #00a4d5;
      }
    </style>
  </defs>
  <path class="st1" d="M23.2,235.4v-29.9h35.2v-16.9H23.2v-26.1h37.3v-17.3H2.5v107.6h60.3v-17.3H23.2ZM81.9,193.3c5.1-3.1,12.1-5.4,19.2-5.4,11.4,0,14.1,5.8,14.1,13.7-24.9,0-42.7,9.3-42.7,29.3s9,23.4,23.4,23.4,16.3-3.5,20.7-9.6h.4l1.3,8h18.6c-.8-4.8-1.1-11.7-1.1-18.4v-28.4c0-17-6.5-32.5-30.8-32.5s-21.8,3.5-27.2,6.5l4.2,13.5ZM115.7,226.1c0,9.9-8,13.5-13.1,13.5s-9.9-3.2-9.9-10.7c0-11.4,11.7-14.1,22.8-14.1v11.3h.1ZM149.7,249c5.2,3.1,13.5,5.2,22,5.2,19.4,0,30.7-9.7,30.7-24.6s-6.1-18.3-19.3-23.8c-9-3.8-12-5.9-12-10.4s3.4-7.3,9.7-7.3,11.4,2.3,14.8,4.1l3.9-14.6c-4.5-2.4-11.4-4.4-19.3-4.4-17.3,0-28.6,10.7-28.6,24.6s5.4,16.8,19.9,22.7c8.6,3.7,11.3,6.1,11.3,10.8s-3.5,7.7-10.8,7.7-14.2-2.8-18.2-5.2l-4.1,15.2ZM278.8,219.9c.4-2.3.6-5.2.6-8.2,0-25.2-12.4-38.6-31.3-38.6s-35.8,19.3-35.8,41.7,13.8,39.4,37.9,39.4,18.7-1.7,25.3-4.5l-3-14.4c-5.4,1.8-11.4,3.2-19,3.2-11.3,0-20.7-5.4-21.3-18.6h46.6c0-.1-.1-.1-.1-.1ZM232.2,205.6c.6-7.6,4.8-18,14.8-18s13.5,9.9,13.4,18h-28.2ZM367.5,145.1l-12.3,40.4c-3.7,13-6.8,25.9-9.4,38h-.4c-2.4-12.4-5.5-24.9-9-38l-11.7-40.4h-25.8l-7.2,107.6h19.2l2.1-41.4c.7-13.4,1.4-29.2,1.7-42.8h.4c2.5,13.2,5.9,27.7,9.4,39.9l12,42.8h15.8l13.2-43.5c3.7-12.1,7.5-26.3,10.7-39.1h.4c-.1,10.8.6,28.2,1.1,42.4l2,41.8h19.7l-6.1-107.6h-25.9ZM449.6,215.5c-1.1,4.8-2.4,10.4-3.2,14.6h-.4c-1-4.4-2.4-9.7-3.7-14.6l-11.5-40.7h-22.7l26.3,71.5c.6,1.5.8,2.7.8,3.5,0,1.5-3.5,9.4-10.4,14.5-3.7,2.5-7.5,4.8-11,5.6l5.2,17.5c4.6-.8,12.7-3.7,20.1-10.8,8.7-8.7,15.5-22.5,24.1-47.7l17.6-54.2h-21.5l-9.7,40.8ZM483.4,145.1v17.9h26.6v89.7h20.7v-89.7h26.8v-17.9h-74.1ZM586.4,188.3l-.8-13.7h-17.7c.3,6.9.6,14.8.6,24.4v53.7h20.7v-40.3c0-13.4,7-19.6,16.5-19.6s3.8.1,5.4.4v-19.7c-1.4-.3-2.7-.4-4.6-.4-7.2,0-15.8,5.2-19.3,15.4h-.6ZM643.8,153.4c0-6.3-4.5-11.1-11.3-11.1s-11.1,4.6-11.1,11.1,4.5,11.1,11.1,11.1c6.6.1,11.3-4.4,11.3-11.1ZM622.4,252.7h20.7v-78h-20.7v78ZM679.3,174.8h-18c.3,7,.6,15.5.6,25.5v83.7h20.8v-38.9h.3c3.4,5.2,10,9,18.4,9,15.9,0,32.1-12.7,32.1-41.3s-12.7-39.9-29.7-39.9-18,4.4-23.1,12.4h-.3l-1.1-10.6ZM682.7,206.8c0-9.3,6.2-16.9,14.4-16.9s15.6,10,15.6,23.9-5.5,24.4-16.1,24.4-13.9-5.5-13.9-16.8v-14.6Z"/>
  <path class="st2" d="M136.6,184.9c57-115.2,213.1-27,299.5-103.9-86.2,89.8-256.7,13.9-299.5,103.9Z"/>
  <path class="st2" d="M396,83l10.3,11c5.1,5.5,3.7,5.6-2.1,9l-32.8,15.4c-3.9,2.4-6.5.4-3.7-4.1l20.8-33.2c2-4.1,4.2-1.8,7.5,2Z"/>
  <path class="st3" d="M338.2,11.6l202.4,16.8c9.9.6,8.3,2.5,3.4,7l-98.7,96.6c-5.5,6.1-6.8,4.4-13.4-2.8l-38.6-43.7c-5.1-5.4-5.9-6.5,2.8-9.6l96-30.8-108,19.2c-8,1.7-7,2.8-12.8-5.2l-35.9-41.1c-4.5-5.1-4.1-7.5,2.8-6.3Z"/>
  <g>
    <path class="st0" d="M719.8,282.3c0-1.7.7-3.8,2.6-3.8s3.3,1.4,3.3,3.1-.3,3.8-2.8,3.8c-1.7-.2-3.1-1.4-3.1-3.1Z"/>
    <path class="st0" d="M799,271.8c-.9,0-1.6,1-1.9,1.7-1.9,3-9.2,10.8-12.7,10.8,1.2-1.7,1.7-3.8,1.7-5.9,0-6.6-4.7-12.6-7.1-18.5.9-2.4,1.7-5.1,1.7-7.7s-.5-4.2-2.4-4.2c-3.7,0-5.8,5.9-5.8,8.9s.2,2.8.7,4c-1.2,4-3.1,7.8-5.4,11.2,0,0,0,.2-.2.2-.7,1-1.6,2.3-2.4,3.3q-.2.2-.3.3c-2.8,3.7-6.5,7.7-8.4,7.7s-2.3-4-2.3-5.4c0-4.7,1.4-12.2,3.1-16.6.3-.9.7-1.9.7-3s-.7-1.2-1.7-1.2c-2.6,0-3.3,3-4.2,4.9-1.9,4.5-11.2,20.2-16.4,20.2s-1.4-2.1-1.4-3.1c0-5.2,1.9-13.1,3.7-18.1.2-.9.5-1.7.5-2.6s-.7-1.7-1.7-1.7c-2.4,0-4.5,1.4-5.2,3.8-1.4,4.4-2.1,9.4-2.1,14.1s0,10.8,5.6,10.8,12-8.2,15-12.4c-.2,1-.2,1.9-.2,3,0,3.3.3,10.8,5.1,10.8s13.9-10.3,16.4-15.2c0-.2.2-.3.2-.5,1.4-2.6,2.4-5.2,3.3-7.3,2.6,3.8,5.4,10.3,5.4,14.8s-2.1,6.6-6.3,6.6-3.8-.2-5.4-1.4c.2.2-.7-.5-1.4-.5s-1.2.3-1.2,1.2.3,1.2.9,1.7c2.3,2.1,6.1,2.6,9.1,2.6,11.2,0,17.8-5.2,23.5-14.3.2-.5.7-1,.7-1.6.2-.7-.2-1.6-1-1.6Z"/>
  </g>
</svg>